{
  "accessors": [
    {
      "name": "Body1_1_0_positions",
      "componentType": 5126,
      "count": 510,
      "min": [
        115,
        -153.5300750732422,
        -160.2204132080078
      ],
      "max": [
        305,
        220.689697265625,
        160.2204132080078
      ],
      "type": "VEC3",
      "bufferView": 0,
      "byteOffset": 0
    },
    {
      "name": "Body1_1_0_normals",
      "componentType": 5126,
      "count": 510,
      "min": [
        -1,
        -0.9986371994018555,
        -0.9973472952842712
      ],
      "max": [
        1,
        1,
        0.9974720478057861
      ],
      "type": "VEC3",
      "bufferView": 1,
      "byteOffset": 0
    },
    {
      "name": "Body1_1_0_texcoords",
      "componentType": 5126,
      "count": 510,
      "min": [
        -25.872411727905273,
        -30.21697425842285
      ],
      "max": [
        35.216064453125,
        69.3827133178711
      ],
      "type": "VEC2",
      "bufferView": 2,
      "byteOffset": 0
    },
    {
      "name": "Body1_1_0_indices",
      "componentType": 5123,
      "count": 1902,
      "min": [
        0
      ],
      "max": [
        509
      ],
      "type": "SCALAR",
      "bufferView": 3,
      "byteOffset": 0
    },
    {
      "name": "Body2_1_0_positions",
      "componentType": 5126,
      "count": 4329,
      "min": [
        0,
        -169.71238708496094,
        -204.3881072998047
      ],
      "max": [
        420,
        850,
        204.38809204101562
      ],
      "type": "VEC3",
      "bufferView": 0,
      "byteOffset": 6120
    },
    {
      "name": "Body2_1_0_normals",
      "componentType": 5126,
      "count": 4329,
      "min": [
        -1,
        -1,
        -1
      ],
      "max": [
        1,
        1,
        1
      ],
      "type": "VEC3",
      "bufferView": 1,
      "byteOffset": 6120
    },
    {
      "name": "Body2_1_0_texcoords",
      "componentType": 5126,
      "count": 4329,
      "min": [
        -80,
        -136.01895141601562
      ],
      "max": [
        80,
        138.01895141601562
      ],
      "type": "VEC2",
      "bufferView": 2,
      "byteOffset": 4080
    },
    {
      "name": "Body2_1_0_indices",
      "componentType": 5123,
      "count": 18396,
      "min": [
        0
      ],
      "max": [
        4328
      ],
      "type": "SCALAR",
      "bufferView": 3,
      "byteOffset": 3804
    }
  ],
  "asset": {
    "generator": "obj2gltf",
    "version": "2.0"
  },
  "buffers": [
    {
      "name": "alpha",
      "byteLength": 195444,
      "uri": "data:application/octet-stream;base64,"
    }
  ],
  "bufferViews": [
    {
      "name": "bufferView_0",
      "buffer": 0,
      "byteLength": 58068,
      "byteOffset": 0,
      "byteStride": 12,
      "target": 34962
    },
    {
      "name": "bufferView_1",
      "buffer": 0,
      "byteLength": 58068,
      "byteOffset": 58068,
      "byteStride": 12,
      "target": 34962
    },
    {
      "name": "bufferView_2",
      "buffer": 0,
      "byteLength": 38712,
      "byteOffset": 116136,
      "byteStride": 8,
      "target": 34962
    },
    {
      "name": "bufferView_3",
      "buffer": 0,
      "byteLength": 40596,
      "byteOffset": 154848,
      "target": 34963
    }
  ],
  "materials": [
    {
      "name": "Opaque(191,191,191)",
      "pbrMetallicRoughness": {
        "baseColorFactor": [
          0.5,
          0.5,
          0.5,
          1
        ],
        "metallicFactor": 0,
        "roughnessFactor": 1
      },
      "emissiveFactor": [
        0,
        0,
        0
      ],
      "alphaMode": "OPAQUE",
      "doubleSided": false
    }
  ],
  "meshes": [
    {
      "name": "Body1_1",
      "primitives": [
        {
          "attributes": {
            "POSITION": 0,
            "NORMAL": 1,
            "TEXCOORD_0": 2
          },
          "indices": 3,
          "material": 0,
          "mode": 4
        }
      ]
    },
    {
      "name": "Body2_1",
      "primitives": [
        {
          "attributes": {
            "POSITION": 4,
            "NORMAL": 5,
            "TEXCOORD_0": 6
          },
          "indices": 7,
          "material": 0,
          "mode": 4
        }
      ]
    }
  ],
  "nodes": [
    {
      "name": "Body1",
      "mesh": 0
    },
    {
      "name": "Body2",
      "mesh": 1
    }
  ],
  "scene": 0,
  "scenes": [
    {
      "nodes": [
        0,
        1
      ]
    }
  ]
}
